<svg width="18" height="19" viewBox="0 0 18 19" fill="none" xmlns="http://www.w3.org/2000/svg"><path d="M9 .567a9.001 9.001 0 0 0 0 18 9.001 9.001 0 0 0 0-18zm4.11 7.017c.003.088.005.177.005.267 0 2.73-2.078 5.877-5.877 5.877A5.847 5.847 0 0 1 4.07 12.8a4.145 4.145 0 0 0 3.058-.856A2.068 2.068 0 0 1 5.2 10.51a2.062 2.062 0 0 0 .934-.035 2.066 2.066 0 0 1-1.657-2.052c.278.155.597.248.935.259a2.064 2.064 0 0 1-.64-2.758A5.865 5.865 0 0 0 9.03 8.082a2.066 2.066 0 0 1 3.52-1.884c.47-.093.913-.265 1.312-.501a2.074 2.074 0 0 1-.909 1.142 4.12 4.12 0 0 0 1.187-.325 4.2 4.2 0 0 1-1.03 1.07z" fill="#3497D2"/></svg>